<svg width="40" height="40" viewBox="0 0 40 40" fill="none" xmlns="http://www.w3.org/2000/svg">
<path d="M11.1111 35.5556C9.343 35.5556 7.64731 34.8532 6.39707 33.6029C5.14682 32.3527 4.44444 30.657 4.44444 28.8889V11.1111C4.44444 9.343 5.14682 7.64731 6.39707 6.39707C7.64731 5.14682 9.343 4.44444 11.1111 4.44444C11.7005 4.44444 12.2657 4.21032 12.6825 3.79357C13.0992 3.37682 13.3333 2.81159 13.3333 2.22222C13.3333 1.63285 13.0992 1.06762 12.6825 0.650874C12.2657 0.234126 11.7005 0 11.1111 0C8.16426 0 5.33811 1.17063 3.25437 3.25437C1.17063 5.33811 0 8.16426 0 11.1111V28.8889C0 31.8357 1.17063 34.6619 3.25437 36.7456C5.33811 38.8294 8.16426 40 11.1111 40C11.7005 40 12.2657 39.7659 12.6825 39.3491C13.0992 38.9324 13.3333 38.3671 13.3333 37.7778C13.3333 37.1884 13.0992 36.6232 12.6825 36.2064C12.2657 35.7897 11.7005 35.5556 11.1111 35.5556ZM28.2444 28.2444C28.4527 28.0379 28.6181 27.7921 28.7309 27.5213C28.8437 27.2505 28.9018 26.96 28.9018 26.6667C28.9018 26.3733 28.8437 26.0829 28.7309 25.8121C28.6181 25.5413 28.4527 25.2955 28.2444 25.0889L23.1333 20L28.2444 14.9111C28.6629 14.4927 28.898 13.9251 28.898 13.3333C28.898 12.7416 28.6629 12.174 28.2444 11.7556C27.826 11.3371 27.2584 11.102 26.6667 11.102C26.0749 11.102 25.5073 11.3371 25.0889 11.7556L20 16.8667L14.9111 11.7556C14.4927 11.3371 13.9251 11.102 13.3333 11.102C12.7416 11.102 12.174 11.3371 11.7556 11.7556C11.3371 12.174 11.102 12.7416 11.102 13.3333C11.102 13.9251 11.3371 14.4927 11.7556 14.9111L16.8667 20L11.7556 25.0889C11.5473 25.2955 11.382 25.5413 11.2691 25.8121C11.1563 26.0829 11.0982 26.3733 11.0982 26.6667C11.0982 26.96 11.1563 27.2505 11.2691 27.5213C11.382 27.7921 11.5473 28.0379 11.7556 28.2444C11.9621 28.4527 12.2079 28.6181 12.4787 28.7309C12.7495 28.8437 13.04 28.9018 13.3333 28.9018C13.6267 28.9018 13.9172 28.8437 14.1879 28.7309C14.4587 28.6181 14.7045 28.4527 14.9111 28.2444L20 23.1333L25.0889 28.2444C25.2955 28.4527 25.5413 28.6181 25.8121 28.7309C26.0829 28.8437 26.3733 28.9018 26.6667 28.9018C26.96 28.9018 27.2505 28.8437 27.5213 28.7309C27.7921 28.6181 28.0379 28.4527 28.2444 28.2444ZM28.8889 0C28.2995 0 27.7343 0.234126 27.3175 0.650874C26.9008 1.06762 26.6667 1.63285 26.6667 2.22222C26.6667 2.81159 26.9008 3.37682 27.3175 3.79357C27.7343 4.21032 28.2995 4.44444 28.8889 4.44444C30.657 4.44444 32.3527 5.14682 33.6029 6.39707C34.8532 7.64731 35.5556 9.343 35.5556 11.1111V28.8889C35.5556 30.657 34.8532 32.3527 33.6029 33.6029C32.3527 34.8532 30.657 35.5556 28.8889 35.5556C28.2995 35.5556 27.7343 35.7897 27.3175 36.2064C26.9008 36.6232 26.6667 37.1884 26.6667 37.7778C26.6667 38.3671 26.9008 38.9324 27.3175 39.3491C27.7343 39.7659 28.2995 40 28.8889 40C31.8357 40 34.6619 38.8294 36.7456 36.7456C38.8294 34.6619 40 31.8357 40 28.8889V11.1111C40 8.16426 38.8294 5.33811 36.7456 3.25437C34.6619 1.17063 31.8357 0 28.8889 0Z" fill="white"/>
</svg>
