<svg width="66" height="66" viewBox="0 0 66 66" fill="none" xmlns="http://www.w3.org/2000/svg">
<path d="M42 30C45.3137 30 48 27.3137 48 24C48 20.6863 45.3137 18 42 18C38.6863 18 36 20.6863 36 24C36 27.3137 38.6863 30 42 30Z" stroke="#AF9CE3" stroke-width="5.9"/>
<path d="M57.0001 49.8L50.3281 43.8C48.8138 42.4368 46.8818 41.6278 44.8481 41.5051C42.8143 41.3825 40.7991 41.9536 39.1321 43.125L38.2381 43.755C37.0826 44.567 35.6777 44.9454 34.2707 44.8236C32.8637 44.7018 31.5448 44.0875 30.5461 43.089L17.6761 30.219C16.4382 28.9822 14.7766 28.262 13.0277 28.204C11.2787 28.1461 9.57312 28.7548 8.25609 29.907L3.84009 33.759" stroke="#AF9CE3" stroke-width="5.9" stroke-linecap="round"/>
<path d="M18 7.01403C22.5586 4.37674 27.7335 2.99192 33 3.00004C49.569 3.00004 63 16.431 63 33C63 49.569 49.569 63 33 63C16.431 63 3 49.569 3 33C3 27.537 4.461 22.41 7.014 18" stroke="#AF9CE3" stroke-width="5.9" stroke-linecap="round"/>
</svg>
