<svg width="40" height="38" viewBox="0 0 40 38" fill="none" xmlns="http://www.w3.org/2000/svg">
<path d="M0.195312 15.5353C0.078125 16.4623 0 17.4048 0 18.3627C0 26.7831 4.66406 34.1142 11.5703 38L12.8594 35.3116V16.949L11.4297 15.5353H0.195312ZM40 16.949C40 15.5353 38.5703 14.1216 37.1406 14.1216H25.7109C26.4219 11.2942 27.1406 8.47449 27.1406 7.06078C27.1406 4.23338 25.7109 1.4137 25 0.702988C24.9844 0.687538 24.2891 0 22.8594 0C20.7188 0 20.7188 2.11669 20.7188 2.11669C20.7188 2.15532 20.0078 5.64708 20.0078 7.06078C20.0078 8.47449 17.1484 14.1216 15.7187 15.5353L14.2891 16.2383V36.0146L15.7187 36.7176H31.4297C34.2891 36.7176 35.7188 35.3039 35.7188 33.8902C35.7188 32.4765 34.2891 31.0628 32.8594 31.0628C35.7188 31.0628 37.1484 29.6491 37.1484 28.2354C37.1484 26.8217 35.7187 25.408 34.2891 25.408C37.1484 25.408 38.5781 23.9943 38.5781 22.5806C38.5781 21.1669 37.1484 19.7532 35.7188 19.7532C38.5703 19.7764 40 18.3627 40 16.949Z" fill="white"/>
</svg>
